<?xml version="1.0" standalone="no"?>
<!DOCTYPE svg PUBLIC "-//W3C//DTD SVG 20010904//EN"
 "http://www.w3.org/TR/2001/REC-SVG-20010904/DTD/svg10.dtd">
<svg version="1.0" xmlns="http://www.w3.org/2000/svg"
 width="512.000000pt" height="512.000000pt" viewBox="0 0 512.000000 512.000000"
 preserveAspectRatio="xMidYMid meet">
<metadata>
Created by potrace 1.14, written by Peter Selinger 2001-2017
</metadata>
<g transform="translate(0.000000,512.000000) scale(0.100000,-0.100000)"
fill="#000000" stroke="none">
<path d="M2379 5116 c-2 -2 -40 -6 -83 -10 -44 -4 -82 -8 -85 -10 -3 -2 -31
-7 -61 -11 -30 -3 -75 -11 -100 -17 -25 -5 -56 -12 -70 -14 -48 -10 -197 -54
-286 -85 -398 -140 -788 -408 -1064 -729 -64 -74 -76 -89 -143 -180 -208 -280
-367 -643 -436 -995 -40 -200 -46 -267 -45 -515 0 -184 3 -241 19 -345 3 -16
7 -43 9 -60 37 -265 165 -623 307 -860 10 -16 27 -46 38 -65 19 -36 131 -195
166 -239 246 -301 506 -518 820 -685 228 -122 538 -225 781 -261 22 -4 50 -8
64 -11 144 -26 531 -26 708 1 75 12 90 14 142 25 30 6 66 13 80 16 111 21 368
110 505 175 657 311 1148 878 1364 1576 18 56 34 113 37 128 3 15 11 55 19 89
36 154 49 296 50 521 0 166 -6 285 -19 360 -3 17 -8 44 -10 60 -3 17 -10 55
-16 85 -6 30 -14 66 -16 80 -11 55 -56 205 -88 292 -108 294 -253 544 -451
778 -411 485 -968 794 -1595 885 -19 3 -53 7 -75 11 -44 6 -460 15 -466 10z
m261 -1474 c282 -90 392 -136 502 -208 141 -94 228 -229 253 -394 4 -25 9 -54
11 -65 6 -30 6 -235 -1 -278 -7 -52 -43 -155 -66 -194 -31 -50 -104 -109 -153
-123 -24 -6 -68 -12 -98 -12 -56 -1 -182 35 -195 55 -5 7 -8 192 -9 412 -1
413 -4 449 -43 494 -43 49 -109 43 -132 -12 -11 -26 -14 -214 -14 -987 0 -838
-2 -955 -15 -955 -12 0 -449 143 -458 150 -2 2 -4 1581 -2 2142 l0 91 148 -38
c81 -21 203 -57 272 -78z m-508 -1184 c3 -10 2 -245 -1 -269 -1 -7 -82 -36
-356 -129 -229 -78 -265 -95 -265 -125 0 -37 48 -50 185 -49 118 1 122 2 277
56 131 45 157 52 160 39 2 -9 3 -68 2 -131 l-1 -115 -44 -6 c-149 -22 -324
-27 -454 -14 -94 9 -221 34 -335 67 -159 46 -236 92 -264 159 -34 82 26 150
194 221 72 30 863 303 891 307 4 1 9 -5 11 -11z m1435 -251 c5 -3 28 -8 53
-11 25 -3 60 -10 78 -15 17 -5 32 -8 32 -6 0 9 234 -77 269 -99 44 -28 90 -80
92 -104 4 -41 -2 -68 -19 -92 -31 -41 -117 -96 -205 -130 -45 -17 -98 -38
-117 -46 -77 -30 -921 -334 -928 -334 -11 0 -8 268 3 278 6 5 71 30 145 56
317 113 608 219 647 238 69 32 66 68 -8 88 -97 26 -187 14 -369 -50 -214 -75
-330 -116 -377 -134 -23 -8 -44 -12 -46 -8 -2 4 -3 70 -3 147 l1 139 60 18
c90 28 232 58 305 64 36 4 67 8 69 10 5 5 309 -4 318 -9z"/>
</g>
</svg>
